<svg xmlns="http://www.w3.org/2000/svg" xmlns:xlink="http://www.w3.org/1999/xlink" width="1000" height="667.88"><rect width="1000" height="667.88" rx="5" ry="5" class="a"/><svg y="0%" x="0%"><circle cx="20" cy="20" r="6" fill="#ff5f58"/><circle cx="40" cy="20" r="6" fill="#ffbd2e"/><circle cx="60" cy="20" r="6" fill="#18c132"/></svg><svg height="607.88" viewBox="0 0 96 60.788" width="960" x="15" xmlns="http://www.w3.org/2000/svg" xmlns:xlink="http://www.w3.org/1999/xlink" y="50"><style>@keyframes k{0%{transform:translateX(0)}.1%{transform:translateX(-192px)}47.2%{transform:translateX(-288px)}72.2%{transform:translateX(-384px)}91.3%{transform:translateX(-480px)}92.3%{transform:translateX(-672px)}93.4%{transform:translateX(-1248px)}94.4%{transform:translateX(-1440px)}94.5%{transform:translateX(-2208px)}95.5%{transform:translateX(-2304px)}96.5%{transform:translateX(-2400px)}96.6%{transform:translateX(-2784px)}to{transform:translateX(-2976px)}}.a{fill:#282d35}.f,.g,.h,.i{white-space:pre}.f{fill:#66c2cd;font-weight:700}.g,.h,.i{fill:#b9c0cb}.h,.i{fill:#a8cc8c}.i{fill:#66c2cd}</style><g font-family="Monaco,Consolas,Menlo,'Bitstream Vera Sans Mono','Powerline Symbols',monospace" font-size="1.67"><defs><symbol id="1"><text y="1.67" class="f">$</text><text x="2.004" y="1.67" class="f">npx</text><text x="6.012" y="1.67" class="f">-y</text><text x="9.018" y="1.67" class="f">@actcore/act@latest</text><text x="29.058" y="1.67" class="f">info</text><text x="34.068" y="1.67" class="f">ghcr.io/actpkg/sqlite:latest</text><text x="63.126" y="1.67" class="f">--tools</text></symbol><symbol id="2"><text y="1.67" class="g">2026-04-24T09:26:59.016391Z</text><text x="29.058" y="1.67" class="h">INFO</text><text x="34.068" y="1.67" class="g">act::resolve:</text><text x="48.096" y="1.67" class="g">Resolving</text><text x="58.116" y="1.67" class="g">component</text><text x="68.136" y="1.67" class="g">ref</text><text x="71.142" y="1.67" class="g">=ghcr.io/actpkg/sqlite:la</text></symbol><symbol id="3"><text y="1.67" class="g">test</text></symbol><symbol id="4"><text y="1.67" class="g">ghcr.io/actpkg/sqlite:latest</text></symbol><symbol id="5"><text y="1.67" class="g">done</text></symbol><symbol id="6"><text x="2.004" y="1.67" class="i">━━━━━━━━━━━━━━━━━━━━━━━━━━━━━━━━━━━━━━━━━━━━━━━━━━━━━━━━━━━━━━━</text><text x="66.132" y="1.67" class="g">1.18</text><text x="71.142" y="1.67" class="g">MiB/1.18</text><text x="80.16" y="1.67" class="g">MiB</text><text x="84.168" y="1.67" class="g">(1.01</text><text x="90.18" y="1.67" class="g">MiB/s)</text></symbol><symbol id="7"><text y="1.67" class="g">2026-04-24T09:27:01.401542Z</text><text x="29.058" y="1.67" class="h">INFO</text><text x="34.068" y="1.67" class="g">act::resolve:</text><text x="48.096" y="1.67" class="g">Resolving</text><text x="58.116" y="1.67" class="g">component</text><text x="68.136" y="1.67" class="g">ref</text><text x="71.142" y="1.67" class="g">=ghcr.io/actpkg/sqlite:la</text></symbol><symbol id="8"><text y="1.67" class="g">2026-04-24T09:27:01.401585Z</text><text x="29.058" y="1.67" class="h">INFO</text><text x="34.068" y="1.67" class="g">act::resolve:</text><text x="48.096" y="1.67" class="g">Using</text><text x="54.108" y="1.67" class="g">cached</text><text x="61.122" y="1.67" class="g">component</text><text x="71.142" y="1.67" class="g">reference</text><text x="80.16" y="1.67" class="g">=ghcr.io/actpkg/</text></symbol><symbol id="9"><text y="1.67" class="g">sqlite:latest</text><text x="14.028" y="1.67" class="g">path</text><text x="18.036" y="1.67" class="g">=/home/alex/.cache/act/components/1b7d26e1c70e61435f2dcbd521c7129040ed179173ad</text></symbol><symbol id="10"><text y="1.67" class="g">57589bb885ca73ded7e8.wasm</text></symbol><symbol id="11"><text y="1.67" class="g">2026-04-24T09:27:01.402131Z</text><text x="29.058" y="1.67" class="h">INFO</text><text x="34.068" y="1.67" class="g">act:</text><text x="39.078" y="1.67" class="g">Loading</text><text x="47.094" y="1.67" class="g">component</text><text x="57.114" y="1.67" class="g">name</text><text x="61.122" y="1.67" class="g">=sqlite</text><text x="69.138" y="1.67" class="g">version</text><text x="76.152" y="1.67" class="g">=0.2.3</text><text x="83.166" y="1.67" class="g">path</text><text x="87.174" y="1.67" class="g">=/home/al</text></symbol><symbol id="12"><text y="1.67" class="g">ex/.cache/act/components/1b7d26e1c70e61435f2dcbd521c7129040ed179173ad57589bb885ca73ded7e8.wasm</text></symbol><symbol id="13"><text y="1.67" class="g">[read-only]</text></symbol><symbol id="14"><text y="1.67" class="g">Parameters:</text></symbol><symbol id="a"><path fill="transparent" d="M0 0h96v29H0z"/></symbol></defs><path class="a" d="M0 0h96v60.788H0z"/><g style="animation-duration:4.828393s;animation-iteration-count:infinite;animation-name:k;animation-timing-function:steps(1,end)"><svg width="3072"><svg><use xlink:href="#a"/></svg><svg x="96"><use xlink:href="#a"/></svg><svg x="192"><use xlink:href="#a"/><use xlink:href="#1"/></svg><svg x="288"><use xlink:href="#a"/><use xlink:href="#1"/><use xlink:href="#2" y="2.171"/><use xlink:href="#3" y="4.342"/></svg><svg x="384"><use xlink:href="#a"/><use xlink:href="#1"/><use xlink:href="#2" y="2.171"/><use xlink:href="#3" y="4.342"/><use xlink:href="#4" y="6.513"/><text x="2.004" y="10.354" class="i">─────────────────────────────────────────────────────────────────────────</text><text x="76.152" y="10.354" class="g">0</text><text x="78.156" y="10.354" class="g">B/1.18</text><text x="85.17" y="10.354" class="g">MiB</text><text x="89.178" y="10.354" class="g">(0</text><text x="92.184" y="10.354" class="g">B/s)</text></svg><svg x="480"><use xlink:href="#a"/><use xlink:href="#1"/><use xlink:href="#2" y="2.171"/><use xlink:href="#3" y="4.342"/><use xlink:href="#4" y="6.513"/><text x="2.004" y="10.354" class="i">━╸───────────────────────────────────────────────────────────</text><text x="64.128" y="10.354" class="g">32.00</text><text x="70.14" y="10.354" class="g">KiB/1.18</text><text x="79.158" y="10.354" class="g">MiB</text><text x="83.166" y="10.354" class="g">(17.39</text><text x="90.18" y="10.354" class="g">KiB/s)</text></svg><svg x="576"><use xlink:href="#a"/><use xlink:href="#1"/><use xlink:href="#2" y="2.171"/><use xlink:href="#3" y="4.342"/><use xlink:href="#4" y="6.513"/><text x="2.004" y="10.354" class="i">━━╸──────────────────────────────────────────────────────────</text><text x="64.128" y="10.354" class="g">48.00</text><text x="70.14" y="10.354" class="g">KiB/1.18</text><text x="79.158" y="10.354" class="g">MiB</text><text x="83.166" y="10.354" class="g">(19.30</text><text x="90.18" y="10.354" class="g">KiB/s)</text></svg><svg x="672"><use xlink:href="#a"/><use xlink:href="#1"/><use xlink:href="#2" y="2.171"/><use xlink:href="#3" y="4.342"/><use xlink:href="#4" y="6.513"/><text x="2.004" y="10.354" class="i">━━━╸─────────────────────────────────────────────────────────</text><text x="64.128" y="10.354" class="g">62.77</text><text x="70.14" y="10.354" class="g">KiB/1.18</text><text x="79.158" y="10.354" class="g">MiB</text><text x="83.166" y="10.354" class="g">(19.34</text><text x="90.18" y="10.354" class="g">KiB/s)</text></svg><svg x="768"><use xlink:href="#a"/><use xlink:href="#1"/><use xlink:href="#2" y="2.171"/><use xlink:href="#3" y="4.342"/><use xlink:href="#4" y="6.513"/><text x="2.004" y="10.354" class="i">━━━━╸────────────────────────────────────────────────────────</text><text x="64.128" y="10.354" class="g">94.77</text><text x="70.14" y="10.354" class="g">KiB/1.18</text><text x="79.158" y="10.354" class="g">MiB</text><text x="83.166" y="10.354" class="g">(22.61</text><text x="90.18" y="10.354" class="g">KiB/s)</text></svg><svg x="864"><use xlink:href="#a"/><use xlink:href="#1"/><use xlink:href="#2" y="2.171"/><use xlink:href="#3" y="4.342"/><use xlink:href="#4" y="6.513"/><text x="2.004" y="10.354" class="i">━━━━━╸──────────────────────────────────────────────────────</text><text x="63.126" y="10.354" class="g">110.77</text><text x="70.14" y="10.354" class="g">KiB/1.18</text><text x="79.158" y="10.354" class="g">MiB</text><text x="83.166" y="10.354" class="g">(22.65</text><text x="90.18" y="10.354" class="g">KiB/s)</text></svg><svg x="960"><use xlink:href="#a"/><use xlink:href="#1"/><use xlink:href="#2" y="2.171"/><use xlink:href="#3" y="4.342"/><use xlink:href="#4" y="6.513"/><text x="2.004" y="10.354" class="i">━━━━━━╸─────────────────────────────────────────────────────</text><text x="63.126" y="10.354" class="g">126.77</text><text x="70.14" y="10.354" class="g">KiB/1.18</text><text x="79.158" y="10.354" class="g">MiB</text><text x="83.166" y="10.354" class="g">(22.65</text><text x="90.18" y="10.354" class="g">KiB/s)</text></svg><svg x="1056"><use xlink:href="#a"/><use xlink:href="#1"/><use xlink:href="#2" y="2.171"/><use xlink:href="#3" y="4.342"/><use xlink:href="#4" y="6.513"/><text x="2.004" y="10.354" class="i">━━━━━━━╸────────────────────────────────────────────────────</text><text x="63.126" y="10.354" class="g">142.77</text><text x="70.14" y="10.354" class="g">KiB/1.18</text><text x="79.158" y="10.354" class="g">MiB</text><text x="83.166" y="10.354" class="g">(22.79</text><text x="90.18" y="10.354" class="g">KiB/s)</text></svg><svg x="1152"><use xlink:href="#a"/><use xlink:href="#1"/><use xlink:href="#2" y="2.171"/><use xlink:href="#3" y="4.342"/><use xlink:href="#4" y="6.513"/><text x="2.004" y="10.354" class="i">━━━━━━━╸────────────────────────────────────────────────────</text><text x="63.126" y="10.354" class="g">158.77</text><text x="70.14" y="10.354" class="g">KiB/1.18</text><text x="79.158" y="10.354" class="g">MiB</text><text x="83.166" y="10.354" class="g">(22.83</text><text x="90.18" y="10.354" class="g">KiB/s)</text></svg><svg x="1248"><use xlink:href="#a"/><use xlink:href="#1"/><use xlink:href="#2" y="2.171"/><use xlink:href="#3" y="4.342"/><use xlink:href="#4" y="6.513"/><text x="2.004" y="10.354" class="i">━━━━━━━━━╸──────────────────────────────────────────────────</text><text x="63.126" y="10.354" class="g">190.77</text><text x="70.14" y="10.354" class="g">KiB/1.18</text><text x="79.158" y="10.354" class="g">MiB</text><text x="83.166" y="10.354" class="g">(22.88</text><text x="90.18" y="10.354" class="g">KiB/s)</text></svg><svg x="1344"><use xlink:href="#a"/><use xlink:href="#1"/><use xlink:href="#2" y="2.171"/><use xlink:href="#3" y="4.342"/><use xlink:href="#4" y="6.513"/><text x="2.004" y="10.354" class="i">━━━━━━━━━━╸─────────────────────────────────────────────────</text><text x="63.126" y="10.354" class="g">206.77</text><text x="70.14" y="10.354" class="g">KiB/1.18</text><text x="79.158" y="10.354" class="g">MiB</text><text x="83.166" y="10.354" class="g">(31.95</text><text x="90.18" y="10.354" class="g">KiB/s)</text></svg><svg x="1440"><use xlink:href="#a"/><use xlink:href="#1"/><use xlink:href="#2" y="2.171"/><use xlink:href="#3" y="4.342"/><use xlink:href="#4" y="6.513"/><text x="2.004" y="10.354" class="i">━━━━━━━━━━━━╸───────────────────────────────────────────────</text><text x="63.126" y="10.354" class="g">254.77</text><text x="70.14" y="10.354" class="g">KiB/1.18</text><text x="79.158" y="10.354" class="g">MiB</text><text x="83.166" y="10.354" class="g">(32.00</text><text x="90.18" y="10.354" class="g">KiB/s)</text></svg><svg x="1536"><use xlink:href="#a"/><use xlink:href="#1"/><use xlink:href="#2" y="2.171"/><use xlink:href="#3" y="4.342"/><use xlink:href="#4" y="6.513"/><text x="2.004" y="10.354" class="i">━━━━━━━━━━━━━╸──────────────────────────────────────────────</text><text x="63.126" y="10.354" class="g">270.77</text><text x="70.14" y="10.354" class="g">KiB/1.18</text><text x="79.158" y="10.354" class="g">MiB</text><text x="83.166" y="10.354" class="g">(32.31</text><text x="90.18" y="10.354" class="g">KiB/s)</text></svg><svg x="1632"><use xlink:href="#a"/><use xlink:href="#1"/><use xlink:href="#2" y="2.171"/><use xlink:href="#3" y="4.342"/><use xlink:href="#4" y="6.513"/><text x="2.004" y="10.354" class="i">━━━━━━━━━━━━━━╸─────────────────────────────────────────────</text><text x="63.126" y="10.354" class="g">286.77</text><text x="70.14" y="10.354" class="g">KiB/1.18</text><text x="79.158" y="10.354" class="g">MiB</text><text x="83.166" y="10.354" class="g">(32.37</text><text x="90.18" y="10.354" class="g">KiB/s)</text></svg><svg x="1728"><use xlink:href="#a"/><use xlink:href="#1"/><use xlink:href="#2" y="2.171"/><use xlink:href="#3" y="4.342"/><use xlink:href="#4" y="6.513"/><text x="2.004" y="10.354" class="i">━━━━━━━━━━━━━━╸─────────────────────────────────────────────</text><text x="63.126" y="10.354" class="g">302.77</text><text x="70.14" y="10.354" class="g">KiB/1.18</text><text x="79.158" y="10.354" class="g">MiB</text><text x="83.166" y="10.354" class="g">(32.42</text><text x="90.18" y="10.354" class="g">KiB/s)</text></svg><svg x="1824"><use xlink:href="#a"/><use xlink:href="#1"/><use xlink:href="#2" y="2.171"/><use xlink:href="#3" y="4.342"/><use xlink:href="#4" y="6.513"/><text x="2.004" y="10.354" class="i">━━━━━━━━━━━━━━━╸────────────────────────────────────────────</text><text x="63.126" y="10.354" class="g">318.77</text><text x="70.14" y="10.354" class="g">KiB/1.18</text><text x="79.158" y="10.354" class="g">MiB</text><text x="83.166" y="10.354" class="g">(32.43</text><text x="90.18" y="10.354" class="g">KiB/s)</text></svg><svg x="1920"><use xlink:href="#a"/><use xlink:href="#1"/><use xlink:href="#2" y="2.171"/><use xlink:href="#3" y="4.342"/><use xlink:href="#4" y="6.513"/><text x="2.004" y="10.354" class="i">━━━━━━━━━━━━━━━━╸───────────────────────────────────────────</text><text x="63.126" y="10.354" class="g">334.77</text><text x="70.14" y="10.354" class="g">KiB/1.18</text><text x="79.158" y="10.354" class="g">MiB</text><text x="83.166" y="10.354" class="g">(32.53</text><text x="90.18" y="10.354" class="g">KiB/s)</text></svg><svg x="2016"><use xlink:href="#a"/><use xlink:href="#1"/><use xlink:href="#2" y="2.171"/><use xlink:href="#3" y="4.342"/><use xlink:href="#4" y="6.513"/><text x="2.004" y="10.354" class="i">━━━━━━━━━━━━━━━━━╸──────────────────────────────────────────</text><text x="63.126" y="10.354" class="g">350.77</text><text x="70.14" y="10.354" class="g">KiB/1.18</text><text x="79.158" y="10.354" class="g">MiB</text><text x="83.166" y="10.354" class="g">(32.61</text><text x="90.18" y="10.354" class="g">KiB/s)</text></svg><svg x="2112"><use xlink:href="#a"/><use xlink:href="#1"/><use xlink:href="#2" y="2.171"/><use xlink:href="#3" y="4.342"/><use xlink:href="#4" y="6.513"/><text x="2.004" y="10.354" class="i">━━━━━━━━━━━━━━━━━━╸─────────────────────────────────────────</text><text x="63.126" y="10.354" class="g">366.77</text><text x="70.14" y="10.354" class="g">KiB/1.18</text><text x="79.158" y="10.354" class="g">MiB</text><text x="83.166" y="10.354" class="g">(32.71</text><text x="90.18" y="10.354" class="g">KiB/s)</text></svg><svg x="2208"><use xlink:href="#a"/><use xlink:href="#1"/><use xlink:href="#2" y="2.171"/><use xlink:href="#3" y="4.342"/><use xlink:href="#4" y="6.513"/><text x="2.004" y="10.354" class="i">━━━━━━━━━━━━━━━━━━╸─────────────────────────────────────────</text><text x="63.126" y="10.354" class="g">382.77</text><text x="70.14" y="10.354" class="g">KiB/1.18</text><text x="79.158" y="10.354" class="g">MiB</text><text x="83.166" y="10.354" class="g">(32.76</text><text x="90.18" y="10.354" class="g">KiB/s)</text></svg><svg x="2304"><use xlink:href="#a"/><use xlink:href="#1"/><use xlink:href="#2" y="2.171"/><use xlink:href="#3" y="4.342"/><use xlink:href="#4" y="6.513"/><text x="2.004" y="10.354" class="i">━━━━━━━━━━━━━━━━━━━━╸───────────────────────────────────────</text><text x="63.126" y="10.354" class="g">414.77</text><text x="70.14" y="10.354" class="g">KiB/1.18</text><text x="79.158" y="10.354" class="g">MiB</text><text x="83.166" y="10.354" class="g">(49.21</text><text x="90.18" y="10.354" class="g">KiB/s)</text></svg><svg x="2400"><use xlink:href="#a"/><use xlink:href="#1"/><use xlink:href="#2" y="2.171"/><use xlink:href="#3" y="4.342"/><use xlink:href="#4" y="6.513"/><text x="2.004" y="10.354" class="i">━━━━━━━━━━━━━━━━━━━━━━━━━━━━━━━━━━━━━━━━━━━╸────────────────</text><text x="63.126" y="10.354" class="g">878.77</text><text x="70.14" y="10.354" class="g">KiB/1.18</text><text x="79.158" y="10.354" class="g">MiB</text><text x="83.166" y="10.354" class="g">(83.13</text><text x="90.18" y="10.354" class="g">KiB/s)</text></svg><svg x="2496"><use xlink:href="#a"/><use xlink:href="#1"/><use xlink:href="#2" y="2.171"/><use xlink:href="#3" y="4.342"/><use xlink:href="#5" y="6.513"/><use xlink:href="#6" y="8.684"/></svg><svg x="2592"><use xlink:href="#a"/><use xlink:href="#1"/><use xlink:href="#2" y="2.171"/><use xlink:href="#3" y="4.342"/><use xlink:href="#5" y="6.513"/><use xlink:href="#6" y="8.684"/><use xlink:href="#7" y="10.855"/><use xlink:href="#3" y="13.026"/></svg><svg x="2688"><use xlink:href="#a"/><use xlink:href="#1"/><use xlink:href="#2" y="2.171"/><use xlink:href="#3" y="4.342"/><use xlink:href="#5" y="6.513"/><use xlink:href="#6" y="8.684"/><use xlink:href="#7" y="10.855"/><use xlink:href="#3" y="13.026"/><use xlink:href="#8" y="15.197"/><use xlink:href="#9" y="17.368"/><use xlink:href="#10" y="19.539"/></svg><svg x="2784"><use xlink:href="#a"/><use xlink:href="#1"/><use xlink:href="#2" y="2.171"/><use xlink:href="#3" y="4.342"/><use xlink:href="#5" y="6.513"/><use xlink:href="#6" y="8.684"/><use xlink:href="#7" y="10.855"/><use xlink:href="#3" y="13.026"/><use xlink:href="#8" y="15.197"/><use xlink:href="#9" y="17.368"/><use xlink:href="#10" y="19.539"/><use xlink:href="#11" y="21.71"/><use xlink:href="#12" y="23.881"/></svg><svg x="2880"><use xlink:href="#a"/><use xlink:href="#1"/><use xlink:href="#2" y="2.171"/><use xlink:href="#3" y="4.342"/><use xlink:href="#5" y="6.513"/><use xlink:href="#6" y="8.684"/><use xlink:href="#7" y="10.855"/><use xlink:href="#3" y="13.026"/><use xlink:href="#8" y="15.197"/><use xlink:href="#9" y="17.368"/><use xlink:href="#10" y="19.539"/><use xlink:href="#11" y="21.71"/><use xlink:href="#12" y="23.881"/><text y="27.722" class="g">2026-04-24T09:27:01.563868Z</text><text x="29.058" y="27.722" class="h">INFO</text><text x="34.068" y="27.722" class="g">act:</text><text x="39.078" y="27.722" class="g">Component</text><text x="49.098" y="27.722" class="g">ready</text><text x="55.11" y="27.722" class="g">name</text><text x="59.118" y="27.722" class="g">=sqlite</text><text x="67.134" y="27.722" class="g">version</text><text x="74.148" y="27.722" class="g">=0.2.3</text></svg><svg x="2976"><use xlink:href="#a"/><text y="3.841" class="g">##</text><text x="3.006" y="3.841" class="g">query</text><text y="6.012" class="g">Execute</text><text x="8.016" y="6.012" class="g">a</text><text x="10.02" y="6.012" class="g">read-only</text><text x="20.04" y="6.012" class="g">SQL</text><text x="24.048" y="6.012" class="g">query</text><text x="30.06" y="6.012" class="g">(SELECT)</text><text x="39.078" y="6.012" class="g">and</text><text x="43.086" y="6.012" class="g">return</text><text x="50.1" y="6.012" class="g">results</text><text x="58.116" y="6.012" class="g">as</text><text x="61.122" y="6.012" class="g">array</text><text x="67.134" y="6.012" class="g">of</text><text x="70.14" y="6.012" class="g">row</text><text x="74.148" y="6.012" class="g">objects</text><use xlink:href="#13" y="6.513"/><use xlink:href="#14" y="8.684"/><text x="2.004" y="12.525" class="g">params:</text><text x="10.02" y="12.525" class="g">any</text><text x="14.028" y="12.525" class="g">—</text><text x="16.032" y="12.525" class="g">Query</text><text x="22.044" y="12.525" class="g">parameters</text><text x="33.066" y="12.525" class="g">as</text><text x="36.072" y="12.525" class="g">JSON</text><text x="41.082" y="12.525" class="g">array</text><text x="47.094" y="12.525" class="g">(optional)</text><text x="2.004" y="14.696" class="g">sql:</text><text x="7.014" y="14.696" class="g">string</text><text x="14.028" y="14.696" class="g">(required)</text><text x="25.05" y="14.696" class="g">—</text><text x="27.054" y="14.696" class="g">SQL</text><text x="31.062" y="14.696" class="g">SELECT</text><text x="38.076" y="14.696" class="g">query</text><text x="44.088" y="14.696" class="g">to</text><text x="47.094" y="14.696" class="g">execute</text><text y="19.038" class="g">##</text><text x="3.006" y="19.038" class="g">execute</text><text y="21.209" class="g">Execute</text><text x="8.016" y="21.209" class="g">a</text><text x="10.02" y="21.209" class="g">write</text><text x="16.032" y="21.209" class="g">SQL</text><text x="20.04" y="21.209" class="g">statement</text><text x="30.06" y="21.209" class="g">(INSERT,</text><text x="39.078" y="21.209" class="g">UPDATE,</text><text x="47.094" y="21.209" class="g">DELETE,</text><text x="55.11" y="21.209" class="g">CREATE</text><text x="62.124" y="21.209" class="g">TABLE,</text><text x="69.138" y="21.209" class="g">etc.)</text><use xlink:href="#14" y="21.71"/><text x="2.004" y="25.551" class="g">params:</text><text x="10.02" y="25.551" class="g">any</text><text x="14.028" y="25.551" class="g">—</text><text x="16.032" y="25.551" class="g">Statement</text><text x="26.052" y="25.551" class="g">parameters</text><text x="37.074" y="25.551" class="g">as</text><text x="40.08" y="25.551" class="g">JSON</text><text x="45.09" y="25.551" class="g">array</text><text x="51.102" y="25.551" class="g">(optional)</text><text x="2.004" y="27.722" class="g">sql:</text><text x="7.014" y="27.722" class="g">string</text><text x="14.028" y="27.722" class="g">(required)</text><text x="25.05" y="27.722" class="g">—</text><text x="27.054" y="27.722" class="g">SQL</text><text x="31.062" y="27.722" class="g">statement</text><text x="41.082" y="27.722" class="g">to</text><text x="44.088" y="27.722" class="g">execute</text><text y="32.064" class="g">##</text><text x="3.006" y="32.064" class="g">list_tables</text><text y="34.235" class="g">List</text><text x="5.01" y="34.235" class="g">all</text><text x="9.018" y="34.235" class="g">tables</text><text x="16.032" y="34.235" class="g">in</text><text x="19.038" y="34.235" class="g">the</text><text x="23.046" y="34.235" class="g">SQLite</text><text x="30.06" y="34.235" class="g">database</text><use xlink:href="#13" y="34.736"/><text y="40.748" class="g">##</text><text x="3.006" y="40.748" class="g">describe_table</text><text y="42.919" class="g">Get</text><text x="4.008" y="42.919" class="g">column</text><text x="11.022" y="42.919" class="g">names,</text><text x="18.036" y="42.919" class="g">types,</text><text x="25.05" y="42.919" class="g">and</text><text x="29.058" y="42.919" class="g">constraints</text><text x="41.082" y="42.919" class="g">for</text><text x="45.09" y="42.919" class="g">a</text><text x="47.094" y="42.919" class="g">table</text><use xlink:href="#13" y="43.42"/><use xlink:href="#14" y="45.591"/><text x="2.004" y="49.432" class="g">table:</text><text x="9.018" y="49.432" class="g">string</text><text x="16.032" y="49.432" class="g">(required)</text><text x="27.054" y="49.432" class="g">—</text><text x="29.058" y="49.432" class="g">Table</text><text x="35.07" y="49.432" class="g">name</text><text x="40.08" y="49.432" class="g">to</text><text x="43.086" y="49.432" class="g">describe</text><text y="53.774" class="g">##</text><text x="3.006" y="53.774" class="g">execute_batch</text><text y="55.945" class="g">Execute</text><text x="8.016" y="55.945" class="g">multiple</text><text x="17.034" y="55.945" class="g">SQL</text><text x="21.042" y="55.945" class="g">statements</text><text x="32.064" y="55.945" class="g">in</text><text x="35.07" y="55.945" class="g">a</text><text x="37.074" y="55.945" class="g">single</text><text x="44.088" y="55.945" class="g">transaction</text><use xlink:href="#14" y="56.446"/><text x="2.004" y="60.287" class="g">sql:</text><text x="7.014" y="60.287" class="g">string</text><text x="14.028" y="60.287" class="g">(required)</text><text x="25.05" y="60.287" class="g">—</text><text x="27.054" y="60.287" class="g">SQL</text><text x="31.062" y="60.287" class="g">statements</text><text x="42.084" y="60.287" class="g">separated</text><text x="52.104" y="60.287" class="g">by</text><text x="55.11" y="60.287" class="g">semicolons</text></svg></svg></g></g></svg></svg>